<svg id="Layer_1" data-name="Layer 1"
	xmlns="http://www.w3.org/2000/svg" viewBox="0 0 145 60">
	<defs>
		<style>.cls-1{fill:#333;}.cls-2{fill:#1b75bc;}</style>
	</defs>
	<title>elliot-logo</title>
	<path class="cls-1" d="M8.78,13.54H33.49v5.3H14.6v8.59H31.34v5.29H14.6v8.92H33.73v5.29H8.78Z"/>
	<path class="cls-1" d="M39.93,12.11h5.82V46.93H39.93Z"/>
	<path class="cls-1" d="M53.09,12.11h5.82V46.93H53.09Z"/>
	<path class="cls-1" d="M66,12.4h6.25v5.49H66Zm.24,9.35h5.82V46.93H66.26Z"/>
	<path class="cls-1" d="M91.06,47.51a13.67,13.67,0,0,1-5.32-1,13.22,13.22,0,0,1-4.25-2.79,12.64,12.64,0,0,1-2.79-4.15,12.93,12.93,0,0,1-1-5.06v-.1a12.78,12.78,0,0,1,1-5.1,13.14,13.14,0,0,1,7.06-7,13.53,13.53,0,0,1,5.37-1,13.8,13.8,0,0,1,5.37,1,12.91,12.91,0,0,1,7,7,12.87,12.87,0,0,1,1,5.08v.1a12.66,12.66,0,0,1-1,5.06,13.08,13.08,0,0,1-7.08,7A13.7,13.7,0,0,1,91.06,47.51Zm.1-5a7.45,7.45,0,0,0,3.15-.64,7.32,7.32,0,0,0,2.39-1.74,7.53,7.53,0,0,0,1.52-2.55,9,9,0,0,0,.52-3.08v-.1a8.69,8.69,0,0,0-.57-3.15,7.92,7.92,0,0,0-1.59-2.58,7.61,7.61,0,0,0-2.42-1.74,7.81,7.81,0,0,0-6.21,0,7.51,7.51,0,0,0-2.39,1.72A7.25,7.25,0,0,0,84,31.19a9.27,9.27,0,0,0-.52,3.1v.1a8.49,8.49,0,0,0,.57,3.12,8.23,8.23,0,0,0,1.59,2.58,7.43,7.43,0,0,0,2.42,1.76A7.22,7.22,0,0,0,91.16,42.5Z"/>
	<path class="cls-1" d="M118.44,47.36a10.68,10.68,0,0,1-2.92-.38,6,6,0,0,1-2.33-1.24,5.5,5.5,0,0,1-1.51-2.27,10,10,0,0,1-.53-3.51V26.71h-3.2v-5h3.2V14.83H117v6.92h6.77v5H117V39.06a3.12,3.12,0,0,0,.81,2.41,3.27,3.27,0,0,0,2.29.74,7.9,7.9,0,0,0,3.58-.86v4.72a10,10,0,0,1-2.34,1A11.08,11.08,0,0,1,118.44,47.36Z"/>
	<circle class="cls-2" cx="132.64" cy="44.31" r="3.58"/>
</svg>